<svg xmlns="http://www.w3.org/2000/svg" width="320pt" height="290pt" viewBox="0 0 320 290">
<polygon points="0,0 320,0 320,290 0,290" fill="#ffffff" stroke="#ffffff" stroke-width="1"/>
<text x="160" y="18" fill="#1e6ea1" font-family="Helvetica,Arial,sans-serif" font-size="13" text-anchor="middle">Find the Butterflies!</text>
<text x="160" y="34" fill="#24465a" font-family="Helvetica,Arial,sans-serif" font-size="8.6" text-anchor="middle">Eight butterflies are hiding in the picture. Can you find them</text>
<text x="160" y="45" fill="#24465a" font-family="Helvetica,Arial,sans-serif" font-size="8.6" text-anchor="middle">all?</text>
<polygon points="5,63 315,63 315,283 5,283" fill="#eff6e8" stroke="#9ebd91" stroke-width="0.6"/>
<polygon points="16,134 16,108 21,101 26,108 26,134" fill="#e1ceb0" stroke="#c7b18f" stroke-width="0.6"/>
<polygon points="34,134 34,108 39,101 44,108 44,134" fill="#e1ceb0" stroke="#c7b18f" stroke-width="0.6"/>
<polygon points="52,134 52,108 57,101 62,108 62,134" fill="#e1ceb0" stroke="#c7b18f" stroke-width="0.6"/>
<polygon points="70,134 70,108 75,101 80,108 80,134" fill="#e1ceb0" stroke="#c7b18f" stroke-width="0.6"/>
<polygon points="88,134 88,108 93,101 98,108 98,134" fill="#e1ceb0" stroke="#c7b18f" stroke-width="0.6"/>
<polygon points="106,134 106,108 111,101 116,108 116,134" fill="#e1ceb0" stroke="#c7b18f" stroke-width="0.6"/>
<polygon points="124,134 124,108 129,101 134,108 134,134" fill="#e1ceb0" stroke="#c7b18f" stroke-width="0.6"/>
<polygon points="142,134 142,108 147,101 152,108 152,134" fill="#e1ceb0" stroke="#c7b18f" stroke-width="0.6"/>
<polygon points="160,134 160,108 165,101 170,108 170,134" fill="#e1ceb0" stroke="#c7b18f" stroke-width="0.6"/>
<polygon points="178,134 178,108 183,101 188,108 188,134" fill="#e1ceb0" stroke="#c7b18f" stroke-width="0.6"/>
<polygon points="196,134 196,108 201,101 206,108 206,134" fill="#e1ceb0" stroke="#c7b18f" stroke-width="0.6"/>
<polygon points="214,134 214,108 219,101 224,108 224,134" fill="#e1ceb0" stroke="#c7b18f" stroke-width="0.6"/>
<polygon points="232,134 232,108 237,101 242,108 242,134" fill="#e1ceb0" stroke="#c7b18f" stroke-width="0.6"/>
<polygon points="250,134 250,108 255,101 260,108 260,134" fill="#e1ceb0" stroke="#c7b18f" stroke-width="0.6"/>
<polygon points="268,134 268,108 273,101 278,108 278,134" fill="#e1ceb0" stroke="#c7b18f" stroke-width="0.6"/>
<polygon points="286,134 286,108 291,101 296,108 296,134" fill="#e1ceb0" stroke="#c7b18f" stroke-width="0.6"/>
<polygon points="304,134 304,108 309,101 314,108 314,134" fill="#e1ceb0" stroke="#c7b18f" stroke-width="0.6"/>
<polygon points="10,121 312,121 312,125 10,125" fill="#e1ceb0" stroke="#c7b18f" stroke-width="0.5"/>
<polygon points="256,97 271,97 271,247 256,247" fill="#d5b68c" stroke="#ad916d" stroke-width="0.7"/>
<ellipse cx="242" cy="87" rx="23" ry="23" fill="#b6d29a" stroke="#8eb47d" stroke-width="0.7"/>
<ellipse cx="268" cy="85" rx="24" ry="24" fill="#b6d29a" stroke="#8eb47d" stroke-width="0.7"/>
<ellipse cx="291" cy="95" rx="20" ry="20" fill="#b6d29a" stroke="#8eb47d" stroke-width="0.7"/>
<ellipse cx="236" cy="107" rx="22" ry="22" fill="#b6d29a" stroke="#8eb47d" stroke-width="0.7"/>
<ellipse cx="268" cy="111" rx="28" ry="28" fill="#b6d29a" stroke="#8eb47d" stroke-width="0.7"/>
<ellipse cx="291" cy="117" rx="19" ry="19" fill="#b6d29a" stroke="#8eb47d" stroke-width="0.7"/>
<ellipse cx="238" cy="90" rx="3" ry="3" fill="#e9b0a0" stroke="#c99283" stroke-width="0.6"/>
<ellipse cx="256" cy="105" rx="3" ry="3" fill="#e9b0a0" stroke="#c99283" stroke-width="0.6"/>
<ellipse cx="278" cy="85" rx="3" ry="3" fill="#e9b0a0" stroke="#c99283" stroke-width="0.6"/>
<ellipse cx="287" cy="113" rx="3" ry="3" fill="#e9b0a0" stroke="#c99283" stroke-width="0.6"/>
<ellipse cx="120" cy="254" rx="105" ry="18" fill="#dbe8c8" stroke="#a7c58c" stroke-width="0.7"/>
<ellipse cx="87" cy="164" rx="74" ry="27" fill="#d6e7be" stroke="#a7c58c" stroke-width="0.7"/>
<ellipse cx="238" cy="221" rx="63" ry="26" fill="#d6e7be" stroke="#a7c58c" stroke-width="0.7"/>
<ellipse cx="165.0" cy="150" rx="12" ry="5" fill="#ddd7bf" stroke="#bcb99e" stroke-width="0.6"/>
<ellipse cx="172.86742327456852" cy="168" rx="12" ry="5" fill="#ddd7bf" stroke="#bcb99e" stroke-width="0.6"/>
<ellipse cx="177.5262564104235" cy="186" rx="12" ry="5" fill="#ddd7bf" stroke="#bcb99e" stroke-width="0.6"/>
<ellipse cx="177.0764762950503" cy="204" rx="12" ry="5" fill="#ddd7bf" stroke="#bcb99e" stroke-width="0.6"/>
<ellipse cx="171.70151783367902" cy="222" rx="12" ry="5" fill="#ddd7bf" stroke="#bcb99e" stroke-width="0.6"/>
<ellipse cx="163.5934632511086" cy="240" rx="12" ry="5" fill="#ddd7bf" stroke="#bcb99e" stroke-width="0.6"/>
<ellipse cx="156.05903993060835" cy="258" rx="12" ry="5" fill="#ddd7bf" stroke="#bcb99e" stroke-width="0.6"/>
<line x1="22" y1="166" x2="22" y2="147" stroke="#7b9d68" stroke-width="0.8"/>
<ellipse cx="18" cy="158" rx="5" ry="2.5" fill="#a0bd81" stroke="#7b9d68" stroke-width="0.5"/>
<ellipse cx="26" cy="153" rx="5" ry="2.5" fill="#b3c98e" stroke="#7b9d68" stroke-width="0.5"/>
<ellipse cx="26.0" cy="144.0" rx="3" ry="3" fill="#efd8a9" stroke="#efd8a9" stroke-width="1"/>
<ellipse cx="23.23606797749979" cy="147.80422606518061" rx="3" ry="3" fill="#efd8a9" stroke="#efd8a9" stroke-width="1"/>
<ellipse cx="18.76393202250021" cy="146.35114100916988" rx="3" ry="3" fill="#efd8a9" stroke="#efd8a9" stroke-width="1"/>
<ellipse cx="18.76393202250021" cy="141.64885899083012" rx="3" ry="3" fill="#efd8a9" stroke="#efd8a9" stroke-width="1"/>
<ellipse cx="23.23606797749979" cy="140.19577393481939" rx="3" ry="3" fill="#efd8a9" stroke="#efd8a9" stroke-width="1"/>
<ellipse cx="22" cy="144" rx="2" ry="2" fill="#efbc40" stroke="#efbc40" stroke-width="1"/>
<line x1="65" y1="197" x2="65" y2="178" stroke="#7b9d68" stroke-width="0.8"/>
<ellipse cx="61" cy="189" rx="5" ry="2.5" fill="#a0bd81" stroke="#7b9d68" stroke-width="0.5"/>
<ellipse cx="69" cy="184" rx="5" ry="2.5" fill="#b3c98e" stroke="#7b9d68" stroke-width="0.5"/>
<ellipse cx="69.0" cy="175.0" rx="3" ry="3" fill="#e9b6b3" stroke="#e9b6b3" stroke-width="1"/>
<ellipse cx="66.23606797749979" cy="178.80422606518061" rx="3" ry="3" fill="#e9b6b3" stroke="#e9b6b3" stroke-width="1"/>
<ellipse cx="61.763932022500214" cy="177.35114100916988" rx="3" ry="3" fill="#e9b6b3" stroke="#e9b6b3" stroke-width="1"/>
<ellipse cx="61.763932022500214" cy="172.64885899083012" rx="3" ry="3" fill="#e9b6b3" stroke="#e9b6b3" stroke-width="1"/>
<ellipse cx="66.23606797749979" cy="171.19577393481939" rx="3" ry="3" fill="#e9b6b3" stroke="#e9b6b3" stroke-width="1"/>
<ellipse cx="65" cy="175" rx="2" ry="2" fill="#efbc40" stroke="#efbc40" stroke-width="1"/>
<line x1="108" y1="228" x2="108" y2="209" stroke="#7b9d68" stroke-width="0.8"/>
<ellipse cx="104" cy="220" rx="5" ry="2.5" fill="#a0bd81" stroke="#7b9d68" stroke-width="0.5"/>
<ellipse cx="112" cy="215" rx="5" ry="2.5" fill="#b3c98e" stroke="#7b9d68" stroke-width="0.5"/>
<ellipse cx="112.0" cy="206.0" rx="3" ry="3" fill="#d9c3df" stroke="#d9c3df" stroke-width="1"/>
<ellipse cx="109.23606797749979" cy="209.80422606518061" rx="3" ry="3" fill="#d9c3df" stroke="#d9c3df" stroke-width="1"/>
<ellipse cx="104.76393202250021" cy="208.35114100916988" rx="3" ry="3" fill="#d9c3df" stroke="#d9c3df" stroke-width="1"/>
<ellipse cx="104.76393202250021" cy="203.64885899083012" rx="3" ry="3" fill="#d9c3df" stroke="#d9c3df" stroke-width="1"/>
<ellipse cx="109.23606797749979" cy="202.19577393481939" rx="3" ry="3" fill="#d9c3df" stroke="#d9c3df" stroke-width="1"/>
<ellipse cx="108" cy="206" rx="2" ry="2" fill="#efbc40" stroke="#efbc40" stroke-width="1"/>
<line x1="194" y1="188" x2="194" y2="169" stroke="#7b9d68" stroke-width="0.8"/>
<ellipse cx="190" cy="180" rx="5" ry="2.5" fill="#a0bd81" stroke="#7b9d68" stroke-width="0.5"/>
<ellipse cx="198" cy="175" rx="5" ry="2.5" fill="#b3c98e" stroke="#7b9d68" stroke-width="0.5"/>
<ellipse cx="198.0" cy="166.0" rx="3" ry="3" fill="#e9b6b3" stroke="#e9b6b3" stroke-width="1"/>
<ellipse cx="195.2360679774998" cy="169.80422606518061" rx="3" ry="3" fill="#e9b6b3" stroke="#e9b6b3" stroke-width="1"/>
<ellipse cx="190.7639320225002" cy="168.35114100916988" rx="3" ry="3" fill="#e9b6b3" stroke="#e9b6b3" stroke-width="1"/>
<ellipse cx="190.7639320225002" cy="163.64885899083012" rx="3" ry="3" fill="#e9b6b3" stroke="#e9b6b3" stroke-width="1"/>
<ellipse cx="195.2360679774998" cy="162.19577393481939" rx="3" ry="3" fill="#e9b6b3" stroke="#e9b6b3" stroke-width="1"/>
<ellipse cx="194" cy="166" rx="2" ry="2" fill="#efbc40" stroke="#efbc40" stroke-width="1"/>
<line x1="237" y1="219" x2="237" y2="200" stroke="#7b9d68" stroke-width="0.8"/>
<ellipse cx="233" cy="211" rx="5" ry="2.5" fill="#a0bd81" stroke="#7b9d68" stroke-width="0.5"/>
<ellipse cx="241" cy="206" rx="5" ry="2.5" fill="#b3c98e" stroke="#7b9d68" stroke-width="0.5"/>
<ellipse cx="241.0" cy="197.0" rx="3" ry="3" fill="#d9c3df" stroke="#d9c3df" stroke-width="1"/>
<ellipse cx="238.2360679774998" cy="200.80422606518061" rx="3" ry="3" fill="#d9c3df" stroke="#d9c3df" stroke-width="1"/>
<ellipse cx="233.7639320225002" cy="199.35114100916988" rx="3" ry="3" fill="#d9c3df" stroke="#d9c3df" stroke-width="1"/>
<ellipse cx="233.7639320225002" cy="194.64885899083012" rx="3" ry="3" fill="#d9c3df" stroke="#d9c3df" stroke-width="1"/>
<ellipse cx="238.2360679774998" cy="193.19577393481939" rx="3" ry="3" fill="#d9c3df" stroke="#d9c3df" stroke-width="1"/>
<ellipse cx="237" cy="197" rx="2" ry="2" fill="#efbc40" stroke="#efbc40" stroke-width="1"/>
<line x1="280" y1="250" x2="280" y2="231" stroke="#7b9d68" stroke-width="0.8"/>
<ellipse cx="276" cy="242" rx="5" ry="2.5" fill="#a0bd81" stroke="#7b9d68" stroke-width="0.5"/>
<ellipse cx="284" cy="237" rx="5" ry="2.5" fill="#b3c98e" stroke="#7b9d68" stroke-width="0.5"/>
<ellipse cx="284.0" cy="228.0" rx="3" ry="3" fill="#efd8a9" stroke="#efd8a9" stroke-width="1"/>
<ellipse cx="281.2360679774998" cy="231.80422606518061" rx="3" ry="3" fill="#efd8a9" stroke="#efd8a9" stroke-width="1"/>
<ellipse cx="276.7639320225002" cy="230.35114100916988" rx="3" ry="3" fill="#efd8a9" stroke="#efd8a9" stroke-width="1"/>
<ellipse cx="276.7639320225002" cy="225.64885899083012" rx="3" ry="3" fill="#efd8a9" stroke="#efd8a9" stroke-width="1"/>
<ellipse cx="281.2360679774998" cy="224.19577393481939" rx="3" ry="3" fill="#efd8a9" stroke="#efd8a9" stroke-width="1"/>
<ellipse cx="280" cy="228" rx="2" ry="2" fill="#efbc40" stroke="#efbc40" stroke-width="1"/>
<line x1="47" y1="179" x2="47" y2="160" stroke="#7b9d68" stroke-width="0.8"/>
<ellipse cx="43" cy="171" rx="5" ry="2.5" fill="#a0bd81" stroke="#7b9d68" stroke-width="0.5"/>
<ellipse cx="51" cy="166" rx="5" ry="2.5" fill="#b3c98e" stroke="#7b9d68" stroke-width="0.5"/>
<ellipse cx="51.0" cy="157.0" rx="3" ry="3" fill="#e9b6b3" stroke="#e9b6b3" stroke-width="1"/>
<ellipse cx="48.236067977499786" cy="160.80422606518061" rx="3" ry="3" fill="#e9b6b3" stroke="#e9b6b3" stroke-width="1"/>
<ellipse cx="43.763932022500214" cy="159.35114100916988" rx="3" ry="3" fill="#e9b6b3" stroke="#e9b6b3" stroke-width="1"/>
<ellipse cx="43.763932022500214" cy="154.64885899083012" rx="3" ry="3" fill="#e9b6b3" stroke="#e9b6b3" stroke-width="1"/>
<ellipse cx="48.236067977499786" cy="153.19577393481939" rx="3" ry="3" fill="#e9b6b3" stroke="#e9b6b3" stroke-width="1"/>
<ellipse cx="47" cy="157" rx="2" ry="2" fill="#efbc40" stroke="#efbc40" stroke-width="1"/>
<line x1="90" y1="210" x2="90" y2="191" stroke="#7b9d68" stroke-width="0.8"/>
<ellipse cx="86" cy="202" rx="5" ry="2.5" fill="#a0bd81" stroke="#7b9d68" stroke-width="0.5"/>
<ellipse cx="94" cy="197" rx="5" ry="2.5" fill="#b3c98e" stroke="#7b9d68" stroke-width="0.5"/>
<ellipse cx="94.0" cy="188.0" rx="3" ry="3" fill="#d9c3df" stroke="#d9c3df" stroke-width="1"/>
<ellipse cx="91.23606797749979" cy="191.80422606518061" rx="3" ry="3" fill="#d9c3df" stroke="#d9c3df" stroke-width="1"/>
<ellipse cx="86.76393202250021" cy="190.35114100916988" rx="3" ry="3" fill="#d9c3df" stroke="#d9c3df" stroke-width="1"/>
<ellipse cx="86.76393202250021" cy="185.64885899083012" rx="3" ry="3" fill="#d9c3df" stroke="#d9c3df" stroke-width="1"/>
<ellipse cx="91.23606797749979" cy="184.19577393481939" rx="3" ry="3" fill="#d9c3df" stroke="#d9c3df" stroke-width="1"/>
<ellipse cx="90" cy="188" rx="2" ry="2" fill="#efbc40" stroke="#efbc40" stroke-width="1"/>
<line x1="133" y1="241" x2="133" y2="222" stroke="#7b9d68" stroke-width="0.8"/>
<ellipse cx="129" cy="233" rx="5" ry="2.5" fill="#a0bd81" stroke="#7b9d68" stroke-width="0.5"/>
<ellipse cx="137" cy="228" rx="5" ry="2.5" fill="#b3c98e" stroke="#7b9d68" stroke-width="0.5"/>
<ellipse cx="137.0" cy="219.0" rx="3" ry="3" fill="#efd8a9" stroke="#efd8a9" stroke-width="1"/>
<ellipse cx="134.2360679774998" cy="222.80422606518061" rx="3" ry="3" fill="#efd8a9" stroke="#efd8a9" stroke-width="1"/>
<ellipse cx="129.7639320225002" cy="221.35114100916988" rx="3" ry="3" fill="#efd8a9" stroke="#efd8a9" stroke-width="1"/>
<ellipse cx="129.7639320225002" cy="216.64885899083012" rx="3" ry="3" fill="#efd8a9" stroke="#efd8a9" stroke-width="1"/>
<ellipse cx="134.2360679774998" cy="215.19577393481939" rx="3" ry="3" fill="#efd8a9" stroke="#efd8a9" stroke-width="1"/>
<ellipse cx="133" cy="219" rx="2" ry="2" fill="#efbc40" stroke="#efbc40" stroke-width="1"/>
<line x1="219" y1="201" x2="219" y2="182" stroke="#7b9d68" stroke-width="0.8"/>
<ellipse cx="215" cy="193" rx="5" ry="2.5" fill="#a0bd81" stroke="#7b9d68" stroke-width="0.5"/>
<ellipse cx="223" cy="188" rx="5" ry="2.5" fill="#b3c98e" stroke="#7b9d68" stroke-width="0.5"/>
<ellipse cx="223.0" cy="179.0" rx="3" ry="3" fill="#d9c3df" stroke="#d9c3df" stroke-width="1"/>
<ellipse cx="220.2360679774998" cy="182.80422606518061" rx="3" ry="3" fill="#d9c3df" stroke="#d9c3df" stroke-width="1"/>
<ellipse cx="215.7639320225002" cy="181.35114100916988" rx="3" ry="3" fill="#d9c3df" stroke="#d9c3df" stroke-width="1"/>
<ellipse cx="215.7639320225002" cy="176.64885899083012" rx="3" ry="3" fill="#d9c3df" stroke="#d9c3df" stroke-width="1"/>
<ellipse cx="220.2360679774998" cy="175.19577393481939" rx="3" ry="3" fill="#d9c3df" stroke="#d9c3df" stroke-width="1"/>
<ellipse cx="219" cy="179" rx="2" ry="2" fill="#efbc40" stroke="#efbc40" stroke-width="1"/>
<line x1="262" y1="232" x2="262" y2="213" stroke="#7b9d68" stroke-width="0.8"/>
<ellipse cx="258" cy="224" rx="5" ry="2.5" fill="#a0bd81" stroke="#7b9d68" stroke-width="0.5"/>
<ellipse cx="266" cy="219" rx="5" ry="2.5" fill="#b3c98e" stroke="#7b9d68" stroke-width="0.5"/>
<ellipse cx="266.0" cy="210.0" rx="3" ry="3" fill="#efd8a9" stroke="#efd8a9" stroke-width="1"/>
<ellipse cx="263.2360679774998" cy="213.80422606518061" rx="3" ry="3" fill="#efd8a9" stroke="#efd8a9" stroke-width="1"/>
<ellipse cx="258.7639320225002" cy="212.35114100916988" rx="3" ry="3" fill="#efd8a9" stroke="#efd8a9" stroke-width="1"/>
<ellipse cx="258.7639320225002" cy="207.64885899083012" rx="3" ry="3" fill="#efd8a9" stroke="#efd8a9" stroke-width="1"/>
<ellipse cx="263.2360679774998" cy="206.19577393481939" rx="3" ry="3" fill="#efd8a9" stroke="#efd8a9" stroke-width="1"/>
<ellipse cx="262" cy="210" rx="2" ry="2" fill="#efbc40" stroke="#efbc40" stroke-width="1"/>
<line x1="29" y1="263" x2="29" y2="244" stroke="#7b9d68" stroke-width="0.8"/>
<ellipse cx="25" cy="255" rx="5" ry="2.5" fill="#a0bd81" stroke="#7b9d68" stroke-width="0.5"/>
<ellipse cx="33" cy="250" rx="5" ry="2.5" fill="#b3c98e" stroke="#7b9d68" stroke-width="0.5"/>
<ellipse cx="33.0" cy="241.0" rx="3" ry="3" fill="#e9b6b3" stroke="#e9b6b3" stroke-width="1"/>
<ellipse cx="30.23606797749979" cy="244.80422606518061" rx="3" ry="3" fill="#e9b6b3" stroke="#e9b6b3" stroke-width="1"/>
<ellipse cx="25.76393202250021" cy="243.35114100916988" rx="3" ry="3" fill="#e9b6b3" stroke="#e9b6b3" stroke-width="1"/>
<ellipse cx="25.76393202250021" cy="238.64885899083012" rx="3" ry="3" fill="#e9b6b3" stroke="#e9b6b3" stroke-width="1"/>
<ellipse cx="30.23606797749979" cy="237.19577393481939" rx="3" ry="3" fill="#e9b6b3" stroke="#e9b6b3" stroke-width="1"/>
<ellipse cx="29" cy="241" rx="2" ry="2" fill="#efbc40" stroke="#efbc40" stroke-width="1"/>
<line x1="72" y1="192" x2="72" y2="173" stroke="#7b9d68" stroke-width="0.8"/>
<ellipse cx="68" cy="184" rx="5" ry="2.5" fill="#a0bd81" stroke="#7b9d68" stroke-width="0.5"/>
<ellipse cx="76" cy="179" rx="5" ry="2.5" fill="#b3c98e" stroke="#7b9d68" stroke-width="0.5"/>
<ellipse cx="76.0" cy="170.0" rx="3" ry="3" fill="#d9c3df" stroke="#d9c3df" stroke-width="1"/>
<ellipse cx="73.23606797749979" cy="173.80422606518061" rx="3" ry="3" fill="#d9c3df" stroke="#d9c3df" stroke-width="1"/>
<ellipse cx="68.76393202250021" cy="172.35114100916988" rx="3" ry="3" fill="#d9c3df" stroke="#d9c3df" stroke-width="1"/>
<ellipse cx="68.76393202250021" cy="167.64885899083012" rx="3" ry="3" fill="#d9c3df" stroke="#d9c3df" stroke-width="1"/>
<ellipse cx="73.23606797749979" cy="166.19577393481939" rx="3" ry="3" fill="#d9c3df" stroke="#d9c3df" stroke-width="1"/>
<ellipse cx="72" cy="170" rx="2" ry="2" fill="#efbc40" stroke="#efbc40" stroke-width="1"/>
<line x1="115" y1="223" x2="115" y2="204" stroke="#7b9d68" stroke-width="0.8"/>
<ellipse cx="111" cy="215" rx="5" ry="2.5" fill="#a0bd81" stroke="#7b9d68" stroke-width="0.5"/>
<ellipse cx="119" cy="210" rx="5" ry="2.5" fill="#b3c98e" stroke="#7b9d68" stroke-width="0.5"/>
<ellipse cx="119.0" cy="201.0" rx="3" ry="3" fill="#efd8a9" stroke="#efd8a9" stroke-width="1"/>
<ellipse cx="116.23606797749979" cy="204.80422606518061" rx="3" ry="3" fill="#efd8a9" stroke="#efd8a9" stroke-width="1"/>
<ellipse cx="111.76393202250021" cy="203.35114100916988" rx="3" ry="3" fill="#efd8a9" stroke="#efd8a9" stroke-width="1"/>
<ellipse cx="111.76393202250021" cy="198.64885899083012" rx="3" ry="3" fill="#efd8a9" stroke="#efd8a9" stroke-width="1"/>
<ellipse cx="116.23606797749979" cy="197.19577393481939" rx="3" ry="3" fill="#efd8a9" stroke="#efd8a9" stroke-width="1"/>
<ellipse cx="115" cy="201" rx="2" ry="2" fill="#efbc40" stroke="#efbc40" stroke-width="1"/>
<line x1="201" y1="183" x2="201" y2="164" stroke="#7b9d68" stroke-width="0.8"/>
<ellipse cx="197" cy="175" rx="5" ry="2.5" fill="#a0bd81" stroke="#7b9d68" stroke-width="0.5"/>
<ellipse cx="205" cy="170" rx="5" ry="2.5" fill="#b3c98e" stroke="#7b9d68" stroke-width="0.5"/>
<ellipse cx="205.0" cy="161.0" rx="3" ry="3" fill="#d9c3df" stroke="#d9c3df" stroke-width="1"/>
<ellipse cx="202.2360679774998" cy="164.80422606518061" rx="3" ry="3" fill="#d9c3df" stroke="#d9c3df" stroke-width="1"/>
<ellipse cx="197.7639320225002" cy="163.35114100916988" rx="3" ry="3" fill="#d9c3df" stroke="#d9c3df" stroke-width="1"/>
<ellipse cx="197.7639320225002" cy="158.64885899083012" rx="3" ry="3" fill="#d9c3df" stroke="#d9c3df" stroke-width="1"/>
<ellipse cx="202.2360679774998" cy="157.19577393481939" rx="3" ry="3" fill="#d9c3df" stroke="#d9c3df" stroke-width="1"/>
<ellipse cx="201" cy="161" rx="2" ry="2" fill="#efbc40" stroke="#efbc40" stroke-width="1"/>
<line x1="244" y1="214" x2="244" y2="195" stroke="#7b9d68" stroke-width="0.8"/>
<ellipse cx="240" cy="206" rx="5" ry="2.5" fill="#a0bd81" stroke="#7b9d68" stroke-width="0.5"/>
<ellipse cx="248" cy="201" rx="5" ry="2.5" fill="#b3c98e" stroke="#7b9d68" stroke-width="0.5"/>
<ellipse cx="248.0" cy="192.0" rx="3" ry="3" fill="#efd8a9" stroke="#efd8a9" stroke-width="1"/>
<ellipse cx="245.2360679774998" cy="195.80422606518061" rx="3" ry="3" fill="#efd8a9" stroke="#efd8a9" stroke-width="1"/>
<ellipse cx="240.7639320225002" cy="194.35114100916988" rx="3" ry="3" fill="#efd8a9" stroke="#efd8a9" stroke-width="1"/>
<ellipse cx="240.7639320225002" cy="189.64885899083012" rx="3" ry="3" fill="#efd8a9" stroke="#efd8a9" stroke-width="1"/>
<ellipse cx="245.2360679774998" cy="188.19577393481939" rx="3" ry="3" fill="#efd8a9" stroke="#efd8a9" stroke-width="1"/>
<ellipse cx="244" cy="192" rx="2" ry="2" fill="#efbc40" stroke="#efbc40" stroke-width="1"/>
<line x1="287" y1="245" x2="287" y2="226" stroke="#7b9d68" stroke-width="0.8"/>
<ellipse cx="283" cy="237" rx="5" ry="2.5" fill="#a0bd81" stroke="#7b9d68" stroke-width="0.5"/>
<ellipse cx="291" cy="232" rx="5" ry="2.5" fill="#b3c98e" stroke="#7b9d68" stroke-width="0.5"/>
<ellipse cx="291.0" cy="223.0" rx="3" ry="3" fill="#e9b6b3" stroke="#e9b6b3" stroke-width="1"/>
<ellipse cx="288.2360679774998" cy="226.80422606518061" rx="3" ry="3" fill="#e9b6b3" stroke="#e9b6b3" stroke-width="1"/>
<ellipse cx="283.7639320225002" cy="225.35114100916988" rx="3" ry="3" fill="#e9b6b3" stroke="#e9b6b3" stroke-width="1"/>
<ellipse cx="283.7639320225002" cy="220.64885899083012" rx="3" ry="3" fill="#e9b6b3" stroke="#e9b6b3" stroke-width="1"/>
<ellipse cx="288.2360679774998" cy="219.19577393481939" rx="3" ry="3" fill="#e9b6b3" stroke="#e9b6b3" stroke-width="1"/>
<ellipse cx="287" cy="223" rx="2" ry="2" fill="#efbc40" stroke="#efbc40" stroke-width="1"/>
<line x1="54" y1="174" x2="54" y2="155" stroke="#7b9d68" stroke-width="0.8"/>
<ellipse cx="50" cy="166" rx="5" ry="2.5" fill="#a0bd81" stroke="#7b9d68" stroke-width="0.5"/>
<ellipse cx="58" cy="161" rx="5" ry="2.5" fill="#b3c98e" stroke="#7b9d68" stroke-width="0.5"/>
<ellipse cx="58.0" cy="152.0" rx="3" ry="3" fill="#d9c3df" stroke="#d9c3df" stroke-width="1"/>
<ellipse cx="55.236067977499786" cy="155.80422606518061" rx="3" ry="3" fill="#d9c3df" stroke="#d9c3df" stroke-width="1"/>
<ellipse cx="50.763932022500214" cy="154.35114100916988" rx="3" ry="3" fill="#d9c3df" stroke="#d9c3df" stroke-width="1"/>
<ellipse cx="50.763932022500214" cy="149.64885899083012" rx="3" ry="3" fill="#d9c3df" stroke="#d9c3df" stroke-width="1"/>
<ellipse cx="55.236067977499786" cy="148.19577393481939" rx="3" ry="3" fill="#d9c3df" stroke="#d9c3df" stroke-width="1"/>
<ellipse cx="54" cy="152" rx="2" ry="2" fill="#efbc40" stroke="#efbc40" stroke-width="1"/>
<line x1="97" y1="205" x2="97" y2="186" stroke="#7b9d68" stroke-width="0.8"/>
<ellipse cx="93" cy="197" rx="5" ry="2.5" fill="#a0bd81" stroke="#7b9d68" stroke-width="0.5"/>
<ellipse cx="101" cy="192" rx="5" ry="2.5" fill="#b3c98e" stroke="#7b9d68" stroke-width="0.5"/>
<ellipse cx="101.0" cy="183.0" rx="3" ry="3" fill="#efd8a9" stroke="#efd8a9" stroke-width="1"/>
<ellipse cx="98.23606797749979" cy="186.80422606518061" rx="3" ry="3" fill="#efd8a9" stroke="#efd8a9" stroke-width="1"/>
<ellipse cx="93.76393202250021" cy="185.35114100916988" rx="3" ry="3" fill="#efd8a9" stroke="#efd8a9" stroke-width="1"/>
<ellipse cx="93.76393202250021" cy="180.64885899083012" rx="3" ry="3" fill="#efd8a9" stroke="#efd8a9" stroke-width="1"/>
<ellipse cx="98.23606797749979" cy="179.19577393481939" rx="3" ry="3" fill="#efd8a9" stroke="#efd8a9" stroke-width="1"/>
<ellipse cx="97" cy="183" rx="2" ry="2" fill="#efbc40" stroke="#efbc40" stroke-width="1"/>
<line x1="140" y1="236" x2="140" y2="217" stroke="#7b9d68" stroke-width="0.8"/>
<ellipse cx="136" cy="228" rx="5" ry="2.5" fill="#a0bd81" stroke="#7b9d68" stroke-width="0.5"/>
<ellipse cx="144" cy="223" rx="5" ry="2.5" fill="#b3c98e" stroke="#7b9d68" stroke-width="0.5"/>
<ellipse cx="144.0" cy="214.0" rx="3" ry="3" fill="#e9b6b3" stroke="#e9b6b3" stroke-width="1"/>
<ellipse cx="141.2360679774998" cy="217.80422606518061" rx="3" ry="3" fill="#e9b6b3" stroke="#e9b6b3" stroke-width="1"/>
<ellipse cx="136.7639320225002" cy="216.35114100916988" rx="3" ry="3" fill="#e9b6b3" stroke="#e9b6b3" stroke-width="1"/>
<ellipse cx="136.7639320225002" cy="211.64885899083012" rx="3" ry="3" fill="#e9b6b3" stroke="#e9b6b3" stroke-width="1"/>
<ellipse cx="141.2360679774998" cy="210.19577393481939" rx="3" ry="3" fill="#e9b6b3" stroke="#e9b6b3" stroke-width="1"/>
<ellipse cx="140" cy="214" rx="2" ry="2" fill="#efbc40" stroke="#efbc40" stroke-width="1"/>
<line x1="226" y1="196" x2="226" y2="177" stroke="#7b9d68" stroke-width="0.8"/>
<ellipse cx="222" cy="188" rx="5" ry="2.5" fill="#a0bd81" stroke="#7b9d68" stroke-width="0.5"/>
<ellipse cx="230" cy="183" rx="5" ry="2.5" fill="#b3c98e" stroke="#7b9d68" stroke-width="0.5"/>
<ellipse cx="230.0" cy="174.0" rx="3" ry="3" fill="#efd8a9" stroke="#efd8a9" stroke-width="1"/>
<ellipse cx="227.2360679774998" cy="177.80422606518061" rx="3" ry="3" fill="#efd8a9" stroke="#efd8a9" stroke-width="1"/>
<ellipse cx="222.7639320225002" cy="176.35114100916988" rx="3" ry="3" fill="#efd8a9" stroke="#efd8a9" stroke-width="1"/>
<ellipse cx="222.7639320225002" cy="171.64885899083012" rx="3" ry="3" fill="#efd8a9" stroke="#efd8a9" stroke-width="1"/>
<ellipse cx="227.2360679774998" cy="170.19577393481939" rx="3" ry="3" fill="#efd8a9" stroke="#efd8a9" stroke-width="1"/>
<ellipse cx="226" cy="174" rx="2" ry="2" fill="#efbc40" stroke="#efbc40" stroke-width="1"/>
<line x1="269" y1="227" x2="269" y2="208" stroke="#7b9d68" stroke-width="0.8"/>
<ellipse cx="265" cy="219" rx="5" ry="2.5" fill="#a0bd81" stroke="#7b9d68" stroke-width="0.5"/>
<ellipse cx="273" cy="214" rx="5" ry="2.5" fill="#b3c98e" stroke="#7b9d68" stroke-width="0.5"/>
<ellipse cx="273.0" cy="205.0" rx="3" ry="3" fill="#e9b6b3" stroke="#e9b6b3" stroke-width="1"/>
<ellipse cx="270.2360679774998" cy="208.80422606518061" rx="3" ry="3" fill="#e9b6b3" stroke="#e9b6b3" stroke-width="1"/>
<ellipse cx="265.7639320225002" cy="207.35114100916988" rx="3" ry="3" fill="#e9b6b3" stroke="#e9b6b3" stroke-width="1"/>
<ellipse cx="265.7639320225002" cy="202.64885899083012" rx="3" ry="3" fill="#e9b6b3" stroke="#e9b6b3" stroke-width="1"/>
<ellipse cx="270.2360679774998" cy="201.19577393481939" rx="3" ry="3" fill="#e9b6b3" stroke="#e9b6b3" stroke-width="1"/>
<ellipse cx="269" cy="205" rx="2" ry="2" fill="#efbc40" stroke="#efbc40" stroke-width="1"/>
<line x1="36" y1="258" x2="36" y2="239" stroke="#7b9d68" stroke-width="0.8"/>
<ellipse cx="32" cy="250" rx="5" ry="2.5" fill="#a0bd81" stroke="#7b9d68" stroke-width="0.5"/>
<ellipse cx="40" cy="245" rx="5" ry="2.5" fill="#b3c98e" stroke="#7b9d68" stroke-width="0.5"/>
<ellipse cx="40.0" cy="236.0" rx="3" ry="3" fill="#d9c3df" stroke="#d9c3df" stroke-width="1"/>
<ellipse cx="37.236067977499786" cy="239.80422606518061" rx="3" ry="3" fill="#d9c3df" stroke="#d9c3df" stroke-width="1"/>
<ellipse cx="32.763932022500214" cy="238.35114100916988" rx="3" ry="3" fill="#d9c3df" stroke="#d9c3df" stroke-width="1"/>
<ellipse cx="32.763932022500214" cy="233.64885899083012" rx="3" ry="3" fill="#d9c3df" stroke="#d9c3df" stroke-width="1"/>
<ellipse cx="37.236067977499786" cy="232.19577393481939" rx="3" ry="3" fill="#d9c3df" stroke="#d9c3df" stroke-width="1"/>
<ellipse cx="36" cy="236" rx="2" ry="2" fill="#efbc40" stroke="#efbc40" stroke-width="1"/>
<line x1="79" y1="187" x2="79" y2="168" stroke="#7b9d68" stroke-width="0.8"/>
<ellipse cx="75" cy="179" rx="5" ry="2.5" fill="#a0bd81" stroke="#7b9d68" stroke-width="0.5"/>
<ellipse cx="83" cy="174" rx="5" ry="2.5" fill="#b3c98e" stroke="#7b9d68" stroke-width="0.5"/>
<ellipse cx="83.0" cy="165.0" rx="3" ry="3" fill="#efd8a9" stroke="#efd8a9" stroke-width="1"/>
<ellipse cx="80.23606797749979" cy="168.80422606518061" rx="3" ry="3" fill="#efd8a9" stroke="#efd8a9" stroke-width="1"/>
<ellipse cx="75.76393202250021" cy="167.35114100916988" rx="3" ry="3" fill="#efd8a9" stroke="#efd8a9" stroke-width="1"/>
<ellipse cx="75.76393202250021" cy="162.64885899083012" rx="3" ry="3" fill="#efd8a9" stroke="#efd8a9" stroke-width="1"/>
<ellipse cx="80.23606797749979" cy="161.19577393481939" rx="3" ry="3" fill="#efd8a9" stroke="#efd8a9" stroke-width="1"/>
<ellipse cx="79" cy="165" rx="2" ry="2" fill="#efbc40" stroke="#efbc40" stroke-width="1"/>
<line x1="122" y1="218" x2="122" y2="199" stroke="#7b9d68" stroke-width="0.8"/>
<ellipse cx="118" cy="210" rx="5" ry="2.5" fill="#a0bd81" stroke="#7b9d68" stroke-width="0.5"/>
<ellipse cx="126" cy="205" rx="5" ry="2.5" fill="#b3c98e" stroke="#7b9d68" stroke-width="0.5"/>
<ellipse cx="126.0" cy="196.0" rx="3" ry="3" fill="#e9b6b3" stroke="#e9b6b3" stroke-width="1"/>
<ellipse cx="123.23606797749979" cy="199.80422606518061" rx="3" ry="3" fill="#e9b6b3" stroke="#e9b6b3" stroke-width="1"/>
<ellipse cx="118.76393202250021" cy="198.35114100916988" rx="3" ry="3" fill="#e9b6b3" stroke="#e9b6b3" stroke-width="1"/>
<ellipse cx="118.76393202250021" cy="193.64885899083012" rx="3" ry="3" fill="#e9b6b3" stroke="#e9b6b3" stroke-width="1"/>
<ellipse cx="123.23606797749979" cy="192.19577393481939" rx="3" ry="3" fill="#e9b6b3" stroke="#e9b6b3" stroke-width="1"/>
<ellipse cx="122" cy="196" rx="2" ry="2" fill="#efbc40" stroke="#efbc40" stroke-width="1"/>
<line x1="208" y1="178" x2="208" y2="159" stroke="#7b9d68" stroke-width="0.8"/>
<ellipse cx="204" cy="170" rx="5" ry="2.5" fill="#a0bd81" stroke="#7b9d68" stroke-width="0.5"/>
<ellipse cx="212" cy="165" rx="5" ry="2.5" fill="#b3c98e" stroke="#7b9d68" stroke-width="0.5"/>
<ellipse cx="212.0" cy="156.0" rx="3" ry="3" fill="#efd8a9" stroke="#efd8a9" stroke-width="1"/>
<ellipse cx="209.2360679774998" cy="159.80422606518061" rx="3" ry="3" fill="#efd8a9" stroke="#efd8a9" stroke-width="1"/>
<ellipse cx="204.7639320225002" cy="158.35114100916988" rx="3" ry="3" fill="#efd8a9" stroke="#efd8a9" stroke-width="1"/>
<ellipse cx="204.7639320225002" cy="153.64885899083012" rx="3" ry="3" fill="#efd8a9" stroke="#efd8a9" stroke-width="1"/>
<ellipse cx="209.2360679774998" cy="152.19577393481939" rx="3" ry="3" fill="#efd8a9" stroke="#efd8a9" stroke-width="1"/>
<ellipse cx="208" cy="156" rx="2" ry="2" fill="#efbc40" stroke="#efbc40" stroke-width="1"/>
<line x1="251" y1="209" x2="251" y2="190" stroke="#7b9d68" stroke-width="0.8"/>
<ellipse cx="247" cy="201" rx="5" ry="2.5" fill="#a0bd81" stroke="#7b9d68" stroke-width="0.5"/>
<ellipse cx="255" cy="196" rx="5" ry="2.5" fill="#b3c98e" stroke="#7b9d68" stroke-width="0.5"/>
<ellipse cx="255.0" cy="187.0" rx="3" ry="3" fill="#e9b6b3" stroke="#e9b6b3" stroke-width="1"/>
<ellipse cx="252.2360679774998" cy="190.80422606518061" rx="3" ry="3" fill="#e9b6b3" stroke="#e9b6b3" stroke-width="1"/>
<ellipse cx="247.7639320225002" cy="189.35114100916988" rx="3" ry="3" fill="#e9b6b3" stroke="#e9b6b3" stroke-width="1"/>
<ellipse cx="247.7639320225002" cy="184.64885899083012" rx="3" ry="3" fill="#e9b6b3" stroke="#e9b6b3" stroke-width="1"/>
<ellipse cx="252.2360679774998" cy="183.19577393481939" rx="3" ry="3" fill="#e9b6b3" stroke="#e9b6b3" stroke-width="1"/>
<ellipse cx="251" cy="187" rx="2" ry="2" fill="#efbc40" stroke="#efbc40" stroke-width="1"/>
<line x1="294" y1="240" x2="294" y2="221" stroke="#7b9d68" stroke-width="0.8"/>
<ellipse cx="290" cy="232" rx="5" ry="2.5" fill="#a0bd81" stroke="#7b9d68" stroke-width="0.5"/>
<ellipse cx="298" cy="227" rx="5" ry="2.5" fill="#b3c98e" stroke="#7b9d68" stroke-width="0.5"/>
<ellipse cx="298.0" cy="218.0" rx="3" ry="3" fill="#d9c3df" stroke="#d9c3df" stroke-width="1"/>
<ellipse cx="295.2360679774998" cy="221.80422606518061" rx="3" ry="3" fill="#d9c3df" stroke="#d9c3df" stroke-width="1"/>
<ellipse cx="290.7639320225002" cy="220.35114100916988" rx="3" ry="3" fill="#d9c3df" stroke="#d9c3df" stroke-width="1"/>
<ellipse cx="290.7639320225002" cy="215.64885899083012" rx="3" ry="3" fill="#d9c3df" stroke="#d9c3df" stroke-width="1"/>
<ellipse cx="295.2360679774998" cy="214.19577393481939" rx="3" ry="3" fill="#d9c3df" stroke="#d9c3df" stroke-width="1"/>
<ellipse cx="294" cy="218" rx="2" ry="2" fill="#efbc40" stroke="#efbc40" stroke-width="1"/>
<line x1="61" y1="169" x2="61" y2="150" stroke="#7b9d68" stroke-width="0.8"/>
<ellipse cx="57" cy="161" rx="5" ry="2.5" fill="#a0bd81" stroke="#7b9d68" stroke-width="0.5"/>
<ellipse cx="65" cy="156" rx="5" ry="2.5" fill="#b3c98e" stroke="#7b9d68" stroke-width="0.5"/>
<ellipse cx="65.0" cy="147.0" rx="3" ry="3" fill="#efd8a9" stroke="#efd8a9" stroke-width="1"/>
<ellipse cx="62.236067977499786" cy="150.80422606518061" rx="3" ry="3" fill="#efd8a9" stroke="#efd8a9" stroke-width="1"/>
<ellipse cx="57.763932022500214" cy="149.35114100916988" rx="3" ry="3" fill="#efd8a9" stroke="#efd8a9" stroke-width="1"/>
<ellipse cx="57.763932022500214" cy="144.64885899083012" rx="3" ry="3" fill="#efd8a9" stroke="#efd8a9" stroke-width="1"/>
<ellipse cx="62.236067977499786" cy="143.19577393481939" rx="3" ry="3" fill="#efd8a9" stroke="#efd8a9" stroke-width="1"/>
<ellipse cx="61" cy="147" rx="2" ry="2" fill="#efbc40" stroke="#efbc40" stroke-width="1"/>
<line x1="104" y1="200" x2="104" y2="181" stroke="#7b9d68" stroke-width="0.8"/>
<ellipse cx="100" cy="192" rx="5" ry="2.5" fill="#a0bd81" stroke="#7b9d68" stroke-width="0.5"/>
<ellipse cx="108" cy="187" rx="5" ry="2.5" fill="#b3c98e" stroke="#7b9d68" stroke-width="0.5"/>
<ellipse cx="108.0" cy="178.0" rx="3" ry="3" fill="#e9b6b3" stroke="#e9b6b3" stroke-width="1"/>
<ellipse cx="105.23606797749979" cy="181.80422606518061" rx="3" ry="3" fill="#e9b6b3" stroke="#e9b6b3" stroke-width="1"/>
<ellipse cx="100.76393202250021" cy="180.35114100916988" rx="3" ry="3" fill="#e9b6b3" stroke="#e9b6b3" stroke-width="1"/>
<ellipse cx="100.76393202250021" cy="175.64885899083012" rx="3" ry="3" fill="#e9b6b3" stroke="#e9b6b3" stroke-width="1"/>
<ellipse cx="105.23606797749979" cy="174.19577393481939" rx="3" ry="3" fill="#e9b6b3" stroke="#e9b6b3" stroke-width="1"/>
<ellipse cx="104" cy="178" rx="2" ry="2" fill="#efbc40" stroke="#efbc40" stroke-width="1"/>
<line x1="39" y1="94" x2="39" y2="105" stroke="#8dad73" stroke-width="0.7"/>
<ellipse cx="35" cy="98" rx="5" ry="2.5" fill="#b4cc92" stroke="#8dad73" stroke-width="0.5"/>
<ellipse cx="43" cy="98" rx="5" ry="2.5" fill="#b4cc92" stroke="#8dad73" stroke-width="0.5"/>
<ellipse cx="43.0" cy="94.0" rx="3" ry="3" fill="#efd8a9" stroke="#efd8a9" stroke-width="1"/>
<ellipse cx="40.236067977499786" cy="97.80422606518061" rx="3" ry="3" fill="#efd8a9" stroke="#efd8a9" stroke-width="1"/>
<ellipse cx="35.763932022500214" cy="96.3511410091699" rx="3" ry="3" fill="#efd8a9" stroke="#efd8a9" stroke-width="1"/>
<ellipse cx="35.763932022500214" cy="91.6488589908301" rx="3" ry="3" fill="#efd8a9" stroke="#efd8a9" stroke-width="1"/>
<ellipse cx="40.236067977499786" cy="90.19577393481939" rx="3" ry="3" fill="#efd8a9" stroke="#efd8a9" stroke-width="1"/>
<ellipse cx="39" cy="94" rx="2" ry="2" fill="#efbc40" stroke="#efbc40" stroke-width="1"/>
<line x1="86" y1="85" x2="86" y2="96" stroke="#8dad73" stroke-width="0.7"/>
<ellipse cx="82" cy="89" rx="5" ry="2.5" fill="#b4cc92" stroke="#8dad73" stroke-width="0.5"/>
<ellipse cx="90" cy="89" rx="5" ry="2.5" fill="#b4cc92" stroke="#8dad73" stroke-width="0.5"/>
<ellipse cx="90.0" cy="85.0" rx="3" ry="3" fill="#efd8a9" stroke="#efd8a9" stroke-width="1"/>
<ellipse cx="87.23606797749979" cy="88.80422606518061" rx="3" ry="3" fill="#efd8a9" stroke="#efd8a9" stroke-width="1"/>
<ellipse cx="82.76393202250021" cy="87.3511410091699" rx="3" ry="3" fill="#efd8a9" stroke="#efd8a9" stroke-width="1"/>
<ellipse cx="82.76393202250021" cy="82.6488589908301" rx="3" ry="3" fill="#efd8a9" stroke="#efd8a9" stroke-width="1"/>
<ellipse cx="87.23606797749979" cy="81.19577393481939" rx="3" ry="3" fill="#efd8a9" stroke="#efd8a9" stroke-width="1"/>
<ellipse cx="86" cy="85" rx="2" ry="2" fill="#efbc40" stroke="#efbc40" stroke-width="1"/>
<line x1="112" y1="115" x2="112" y2="126" stroke="#8dad73" stroke-width="0.7"/>
<ellipse cx="108" cy="119" rx="5" ry="2.5" fill="#b4cc92" stroke="#8dad73" stroke-width="0.5"/>
<ellipse cx="116" cy="119" rx="5" ry="2.5" fill="#b4cc92" stroke="#8dad73" stroke-width="0.5"/>
<ellipse cx="116.0" cy="115.0" rx="3" ry="3" fill="#efd8a9" stroke="#efd8a9" stroke-width="1"/>
<ellipse cx="113.23606797749979" cy="118.80422606518061" rx="3" ry="3" fill="#efd8a9" stroke="#efd8a9" stroke-width="1"/>
<ellipse cx="108.76393202250021" cy="117.3511410091699" rx="3" ry="3" fill="#efd8a9" stroke="#efd8a9" stroke-width="1"/>
<ellipse cx="108.76393202250021" cy="112.6488589908301" rx="3" ry="3" fill="#efd8a9" stroke="#efd8a9" stroke-width="1"/>
<ellipse cx="113.23606797749979" cy="111.19577393481939" rx="3" ry="3" fill="#efd8a9" stroke="#efd8a9" stroke-width="1"/>
<ellipse cx="112" cy="115" rx="2" ry="2" fill="#efbc40" stroke="#efbc40" stroke-width="1"/>
<line x1="191" y1="91" x2="191" y2="102" stroke="#8dad73" stroke-width="0.7"/>
<ellipse cx="187" cy="95" rx="5" ry="2.5" fill="#b4cc92" stroke="#8dad73" stroke-width="0.5"/>
<ellipse cx="195" cy="95" rx="5" ry="2.5" fill="#b4cc92" stroke="#8dad73" stroke-width="0.5"/>
<ellipse cx="195.0" cy="91.0" rx="3" ry="3" fill="#efd8a9" stroke="#efd8a9" stroke-width="1"/>
<ellipse cx="192.2360679774998" cy="94.80422606518061" rx="3" ry="3" fill="#efd8a9" stroke="#efd8a9" stroke-width="1"/>
<ellipse cx="187.7639320225002" cy="93.3511410091699" rx="3" ry="3" fill="#efd8a9" stroke="#efd8a9" stroke-width="1"/>
<ellipse cx="187.7639320225002" cy="88.6488589908301" rx="3" ry="3" fill="#efd8a9" stroke="#efd8a9" stroke-width="1"/>
<ellipse cx="192.2360679774998" cy="87.19577393481939" rx="3" ry="3" fill="#efd8a9" stroke="#efd8a9" stroke-width="1"/>
<ellipse cx="191" cy="91" rx="2" ry="2" fill="#efbc40" stroke="#efbc40" stroke-width="1"/>
<polygon points="65,242 108,242 108,265 65,265" fill="#dcb47c" stroke="#a87d48" stroke-width="0.8"/>
<path d="M68 242 C64 216 108 216 105 242" fill="none" stroke="#a87d48" stroke-width="1.4"/>
<line x1="67" y1="250" x2="106" y2="250" stroke="#b28e5c" stroke-width="0.5"/>
<line x1="67" y1="257" x2="106" y2="257" stroke="#b28e5c" stroke-width="0.5"/>
<line x1="74" y1="244" x2="74" y2="262" stroke="#b28e5c" stroke-width="0.5"/>
<line x1="83" y1="244" x2="83" y2="262" stroke="#b28e5c" stroke-width="0.5"/>
<line x1="92" y1="244" x2="92" y2="262" stroke="#b28e5c" stroke-width="0.5"/>
<line x1="101" y1="244" x2="101" y2="262" stroke="#b28e5c" stroke-width="0.5"/>
<polygon points="46,157 55,149 64,157 55,165" fill="#b7cc91" stroke="#88a370" stroke-width="0.5"/>
<polygon points="106,218 115,210 124,218 115,226" fill="#b7cc91" stroke="#88a370" stroke-width="0.5"/>
<polygon points="202,173 211,165 220,173 211,181" fill="#b7cc91" stroke="#88a370" stroke-width="0.5"/>
<polygon points="274,268 283,260 292,268 283,276" fill="#b7cc91" stroke="#88a370" stroke-width="0.5"/>
<ellipse cx="35.2" cy="111.9" rx="2.8" ry="3.5" fill="#fff4d8" stroke="#79a984" stroke-width="1"/>
<ellipse cx="35.9" cy="116.8" rx="2.0999999999999996" ry="2.0999999999999996" fill="#fff4d8" stroke="#79a984" stroke-width="1"/>
<ellipse cx="40.8" cy="111.9" rx="2.8" ry="3.5" fill="#fff4d8" stroke="#79a984" stroke-width="1"/>
<ellipse cx="40.1" cy="116.8" rx="2.0999999999999996" ry="2.0999999999999996" fill="#fff4d8" stroke="#79a984" stroke-width="1"/>
<line x1="38" y1="109.8" x2="38" y2="118.9" stroke="#24465a" stroke-width="1.2"/>
<line x1="38" y1="110.5" x2="35.9" y2="107.7" stroke="#24465a" stroke-width="1.2"/>
<line x1="38" y1="110.5" x2="40.1" y2="107.7" stroke="#24465a" stroke-width="1.2"/>
<ellipse cx="97.12" cy="156.84" rx="2.88" ry="3.5999999999999996" fill="#fff4d8" stroke="#79a984" stroke-width="1"/>
<ellipse cx="97.84" cy="161.88" rx="2.16" ry="2.16" fill="#fff4d8" stroke="#79a984" stroke-width="1"/>
<ellipse cx="102.88" cy="156.84" rx="2.88" ry="3.5999999999999996" fill="#fff4d8" stroke="#79a984" stroke-width="1"/>
<ellipse cx="102.16" cy="161.88" rx="2.16" ry="2.16" fill="#fff4d8" stroke="#79a984" stroke-width="1"/>
<line x1="100" y1="154.68" x2="100" y2="164.04" stroke="#24465a" stroke-width="1.2"/>
<line x1="100" y1="155.4" x2="97.84" y2="152.52" stroke="#24465a" stroke-width="1.2"/>
<line x1="100" y1="155.4" x2="102.16" y2="152.52" stroke="#24465a" stroke-width="1.2"/>
<ellipse cx="193.12" cy="101.84" rx="2.88" ry="3.5999999999999996" fill="#fff4d8" stroke="#79a984" stroke-width="1"/>
<ellipse cx="193.84" cy="106.88" rx="2.16" ry="2.16" fill="#fff4d8" stroke="#79a984" stroke-width="1"/>
<ellipse cx="198.88" cy="101.84" rx="2.88" ry="3.5999999999999996" fill="#fff4d8" stroke="#79a984" stroke-width="1"/>
<ellipse cx="198.16" cy="106.88" rx="2.16" ry="2.16" fill="#fff4d8" stroke="#79a984" stroke-width="1"/>
<line x1="196" y1="99.68" x2="196" y2="109.04" stroke="#24465a" stroke-width="1.2"/>
<line x1="196" y1="100.4" x2="193.84" y2="97.52" stroke="#24465a" stroke-width="1.2"/>
<line x1="196" y1="100.4" x2="198.16" y2="97.52" stroke="#24465a" stroke-width="1.2"/>
<ellipse cx="276.2" cy="105.9" rx="2.8" ry="3.5" fill="#fff4d8" stroke="#79a984" stroke-width="1"/>
<ellipse cx="276.9" cy="110.8" rx="2.0999999999999996" ry="2.0999999999999996" fill="#fff4d8" stroke="#79a984" stroke-width="1"/>
<ellipse cx="281.8" cy="105.9" rx="2.8" ry="3.5" fill="#fff4d8" stroke="#79a984" stroke-width="1"/>
<ellipse cx="281.1" cy="110.8" rx="2.0999999999999996" ry="2.0999999999999996" fill="#fff4d8" stroke="#79a984" stroke-width="1"/>
<line x1="279" y1="103.8" x2="279" y2="112.9" stroke="#24465a" stroke-width="1.2"/>
<line x1="279" y1="104.5" x2="276.9" y2="101.7" stroke="#24465a" stroke-width="1.2"/>
<line x1="279" y1="104.5" x2="281.1" y2="101.7" stroke="#24465a" stroke-width="1.2"/>
<ellipse cx="232.12" cy="188.84" rx="2.88" ry="3.5999999999999996" fill="#fff4d8" stroke="#79a984" stroke-width="1"/>
<ellipse cx="232.84" cy="193.88" rx="2.16" ry="2.16" fill="#fff4d8" stroke="#79a984" stroke-width="1"/>
<ellipse cx="237.88" cy="188.84" rx="2.88" ry="3.5999999999999996" fill="#fff4d8" stroke="#79a984" stroke-width="1"/>
<ellipse cx="237.16" cy="193.88" rx="2.16" ry="2.16" fill="#fff4d8" stroke="#79a984" stroke-width="1"/>
<line x1="235" y1="186.68" x2="235" y2="196.04" stroke="#24465a" stroke-width="1.2"/>
<line x1="235" y1="187.4" x2="232.84" y2="184.52" stroke="#24465a" stroke-width="1.2"/>
<line x1="235" y1="187.4" x2="237.16" y2="184.52" stroke="#24465a" stroke-width="1.2"/>
<ellipse cx="80.12" cy="232.84" rx="2.88" ry="3.5999999999999996" fill="#fff4d8" stroke="#79a984" stroke-width="1"/>
<ellipse cx="80.84" cy="237.88" rx="2.16" ry="2.16" fill="#fff4d8" stroke="#79a984" stroke-width="1"/>
<ellipse cx="85.88" cy="232.84" rx="2.88" ry="3.5999999999999996" fill="#fff4d8" stroke="#79a984" stroke-width="1"/>
<ellipse cx="85.16" cy="237.88" rx="2.16" ry="2.16" fill="#fff4d8" stroke="#79a984" stroke-width="1"/>
<line x1="83" y1="230.68" x2="83" y2="240.04" stroke="#24465a" stroke-width="1.2"/>
<line x1="83" y1="231.4" x2="80.84" y2="228.52" stroke="#24465a" stroke-width="1.2"/>
<line x1="83" y1="231.4" x2="85.16" y2="228.52" stroke="#24465a" stroke-width="1.2"/>
<ellipse cx="116.12" cy="260.84" rx="2.88" ry="3.5999999999999996" fill="#fff4d8" stroke="#79a984" stroke-width="1"/>
<ellipse cx="116.84" cy="265.88" rx="2.16" ry="2.16" fill="#fff4d8" stroke="#79a984" stroke-width="1"/>
<ellipse cx="121.88" cy="260.84" rx="2.88" ry="3.5999999999999996" fill="#fff4d8" stroke="#79a984" stroke-width="1"/>
<ellipse cx="121.16" cy="265.88" rx="2.16" ry="2.16" fill="#fff4d8" stroke="#79a984" stroke-width="1"/>
<line x1="119" y1="258.68" x2="119" y2="268.04" stroke="#24465a" stroke-width="1.2"/>
<line x1="119" y1="259.4" x2="116.84" y2="256.52" stroke="#24465a" stroke-width="1.2"/>
<line x1="119" y1="259.4" x2="121.16" y2="256.52" stroke="#24465a" stroke-width="1.2"/>
<ellipse cx="285.2" cy="243.9" rx="2.8" ry="3.5" fill="#fff4d8" stroke="#79a984" stroke-width="1"/>
<ellipse cx="285.9" cy="248.8" rx="2.0999999999999996" ry="2.0999999999999996" fill="#fff4d8" stroke="#79a984" stroke-width="1"/>
<ellipse cx="290.8" cy="243.9" rx="2.8" ry="3.5" fill="#fff4d8" stroke="#79a984" stroke-width="1"/>
<ellipse cx="290.1" cy="248.8" rx="2.0999999999999996" ry="2.0999999999999996" fill="#fff4d8" stroke="#79a984" stroke-width="1"/>
<line x1="288" y1="241.8" x2="288" y2="250.9" stroke="#24465a" stroke-width="1.2"/>
<line x1="288" y1="242.5" x2="285.9" y2="239.7" stroke="#24465a" stroke-width="1.2"/>
<line x1="288" y1="242.5" x2="290.1" y2="239.7" stroke="#24465a" stroke-width="1.2"/>
</svg>